# Blender v2.93.0 OBJ File: 'cactus.blend'
# www.blender.org
mtllib cactus_l.mtl
o Cactus1.001_Cube.006
v -0.746669 0.003799 0.632954
v -0.488815 18.109852 -0.572633
v -0.746669 0.003799 -0.860384
v -0.488815 17.624157 -1.410294
v 0.746669 0.003799 0.632954
v 0.488815 18.109852 -0.572633
v 0.746669 0.003799 -0.860384
v 0.488815 17.624157 -1.410294
v -1.026670 0.003799 -0.113715
v -0.757779 17.920702 -0.154626
v -0.559608 17.916378 -1.025175
v 0.000000 0.003799 -1.140385
v -0.000000 17.636160 -1.504049
v 1.026670 0.003799 -0.113715
v 0.559608 17.916378 -1.025175
v 0.000000 0.003799 0.912955
v 0.000000 18.196602 -0.546301
v -0.883365 3.163297 0.298828
v -1.038236 15.125303 1.006941
v -0.757780 17.195381 -1.461669
v -1.038236 14.422222 -0.879705
v -0.883365 3.131728 -1.407241
v 0.757779 17.195381 -1.461669
v 1.038236 14.422222 -0.879704
v 0.883365 3.131728 -1.407241
v 0.757780 17.920702 -0.154626
v 1.038236 15.125304 1.006941
v 0.883365 3.163297 0.298828
v -1.034840 17.562908 -0.811471
v 0.000000 17.067310 -1.703843
v 1.034840 17.562908 -0.811471
v -0.000000 18.058506 0.080901
v 0.000000 0.003799 -0.113715
v 0.000000 18.019991 -1.095922
v 0.000000 3.169215 0.618716
v 0.000000 15.257131 1.360687
v 1.214626 3.147512 -0.554207
v 1.427574 14.773763 0.063618
v -0.000000 3.125809 -1.727129
v 0.000000 14.290395 -1.233451
v -1.214626 3.147512 -0.554206
v -1.427574 14.773763 0.063618
v -0.960800 9.930983 1.139284
v -0.960800 10.355201 -0.644495
v 0.960800 10.355201 -0.644495
v 0.960800 9.930984 1.139284
v 0.000000 9.851441 1.473742
v 1.321100 10.143092 0.247395
v -0.000000 10.434741 -0.978953
v -1.321100 10.143092 0.247395
v 0.055920 3.610192 0.309449
v 0.782766 9.037253 3.779603
v -0.097478 4.524404 0.467102
v 0.456749 9.207398 3.265430
v 0.817859 3.825505 -0.197757
v 1.328936 9.170065 3.477246
v 0.664461 4.739717 -0.040104
v 1.002919 9.340211 2.963074
v -0.163643 4.026927 0.483376
v 0.732488 8.724664 3.922139
v 0.577102 9.150084 3.555219
v 0.254730 4.803475 0.243058
v 0.702987 9.322245 3.087035
v 0.884024 4.322982 -0.214032
v 1.202372 9.302130 3.209072
v 0.465651 3.546433 0.026286
v 1.076486 9.129972 3.677257
v 1.184232 5.271345 2.548587
v 0.834873 7.078505 3.770498
v 0.228514 9.004563 3.134721
v 0.157384 7.634846 2.791075
v 0.600260 5.840152 1.970460
v 1.075208 9.210454 2.665995
v 1.317442 7.916937 2.148873
v 1.415301 6.074215 1.377469
v 1.579182 8.930554 3.453414
v 1.994930 7.360597 3.128296
v 1.999272 5.505408 1.955596
v 0.325410 8.830659 3.615183
v 0.559401 9.162169 2.757350
v 1.481674 9.111828 2.975081
v 1.247682 8.780319 3.832914
v 0.360191 4.174954 0.134672
v 0.883219 9.304543 3.404825
v 1.701247 5.281725 2.360490
v 1.541931 7.115237 3.633039
v 1.860107 5.833697 1.555346
v 1.873697 7.691660 2.518172
v 0.898286 6.063835 1.565566
v 0.610383 7.880206 2.286332
v 0.739426 5.511863 2.370710
v 0.278618 7.303784 3.401199
v 0.690313 8.112617 -0.319081
v 2.367023 13.446245 -3.220482
v 0.660340 8.830638 -0.470306
v 2.052529 13.407596 -2.752787
v 0.092276 8.001013 -0.730442
v 1.902546 13.359566 -3.539975
v 0.062303 8.719034 -0.881668
v 1.588052 13.320917 -3.072280
v 0.787458 8.492553 -0.317563
v 2.617193 13.265983 -3.255129
v 2.236273 13.467320 -2.962380
v 0.355702 8.909465 -0.704342
v 1.790405 13.394285 -2.877233
v -0.034842 8.339099 -0.883186
v 1.704526 13.368086 -3.328143
v 0.396914 7.922187 -0.496406
v 2.150394 13.441122 -3.413291
v 2.447863 8.868017 -2.338847
v 2.950264 11.257810 -3.312013
v 2.129078 13.222523 -2.533718
v 2.273234 11.373098 -2.359026
v 2.014796 9.663168 -1.924982
v 1.409027 13.088151 -3.029008
v 1.286690 11.188993 -3.037625
v 1.175413 9.506525 -2.502356
v 1.897142 13.131611 -3.750419
v 1.963721 11.073704 -3.990611
v 1.608480 8.711375 -2.916220
v 2.504064 13.272182 -2.803768
v 1.679118 13.150558 -2.649320
v 1.520747 13.088680 -3.480147
v 2.345693 13.210307 -3.634595
v 0.376308 8.415825 -0.600374
v 1.955420 13.489315 -3.142913
v 2.109371 8.640604 -2.705133
v 2.583936 11.144139 -3.829997
v 1.234562 9.079579 -2.817545
v 1.440229 11.096828 -3.641355
v 1.513905 9.733936 -2.136070
v 1.653019 11.302663 -2.519641
v 2.388714 9.294963 -2.023657
v 2.796726 11.349974 -2.708282
v -0.476433 11.891880 -0.284018
v -3.355590 16.450489 2.023972
v -0.570394 12.625656 0.064699
v -2.742100 16.444712 1.884726
v -0.313426 11.565003 0.447720
v -3.228987 16.196613 2.592292
v -0.407386 12.298779 0.796438
v -2.615497 16.190836 2.453046
v -0.553977 12.320058 -0.246861
v -3.582870 16.299603 1.811884
v -3.051481 16.501467 1.927590
v -0.506508 12.599802 0.495953
v -2.627617 16.351517 2.172558
v -0.329842 11.870604 0.759280
v -2.906542 16.210821 2.578217
v -0.377311 11.590859 0.016466
v -3.330405 16.360771 2.333250
v -3.394983 12.641589 0.179859
v -4.209642 14.449589 1.118346
v -2.634183 16.307449 1.604053
v -2.930867 14.639112 0.918140
v -2.729373 13.496840 0.413634
v -2.437919 15.913882 2.485085
v -2.661964 14.099886 2.125244
v -2.500582 13.038048 1.440677
v -3.386605 15.906034 2.692916
v -3.940740 13.910363 2.325451
v -3.166192 12.182796 1.206902
v -3.143761 16.378973 1.548325
v -2.361939 16.115395 2.007895
v -2.875739 15.841508 2.751482
v -3.657560 16.105087 2.291912
v -0.441910 12.095330 0.256210
v -2.965304 16.430605 2.283113
v -3.405390 12.251831 0.649547
v -4.314962 14.144440 1.759437
v -2.790488 12.524399 1.516361
v -3.250932 13.904018 2.451679
v -2.490176 13.427805 0.970989
v -2.556644 14.405035 1.484153
v -3.105077 13.155238 0.104176
v -3.620674 14.645455 0.791911
vt 0.531250 0.125000
vt 0.593750 0.125000
vt 0.593750 0.250000
vt 0.531250 0.250000
vt 0.593750 0.000000
vt 0.625000 0.000000
vt 0.625000 0.125000
vt 0.625000 0.250000
vt 0.531250 0.375000
vt 0.593750 0.375000
vt 0.594401 0.500000
vt 0.531250 0.500000
vt 0.625000 0.375000
vt 0.625000 0.500000
vt 0.531250 0.000000
vt 0.531250 0.625000
vt 0.596354 0.625000
vt 0.594401 0.750000
vt 0.531250 0.750000
vt 0.651042 0.625000
vt 0.625000 0.750000
vt 0.531250 0.250000
vt 0.531250 0.875000
vt 0.593750 0.875000
vt 0.593750 1.000000
vt 0.531250 1.000000
vt 0.625000 0.875000
vt 0.625000 1.000000
vt 0.125000 0.500000
vt 0.250000 0.500000
vt 0.250000 0.625000
vt 0.125000 0.625000
vt 0.375000 0.500000
vt 0.375000 0.625000
vt 0.375000 0.750000
vt 0.250000 0.750000
vt 0.125000 0.750000
vt 0.750000 0.500000
vt 0.752604 0.625000
vt 0.875000 0.500000
vt 0.875000 0.625000
vt 0.875000 0.750000
vt 0.750000 0.750000
vt 0.375000 0.875000
vt 0.468750 0.875000
vt 0.468750 1.000000
vt 0.375000 1.000000
vt 0.468750 0.500000
vt 0.468750 0.625000
vt 0.468750 0.750000
vt 0.500000 0.875000
vt 0.500000 1.000000
vt 0.500000 0.500000
vt 0.500000 0.625000
vt 0.375000 0.250000
vt 0.468750 0.250000
vt 0.468750 0.375000
vt 0.375000 0.375000
vt 0.500000 0.750000
vt 0.500000 0.250000
vt 0.500000 0.375000
vt 0.375000 0.000000
vt 0.468750 0.000000
vt 0.468750 0.125000
vt 0.375000 0.125000
vt 0.500000 0.000000
vt 0.500000 0.125000
vt 0.531250 0.750000
vt 0.531250 0.125000
vt 0.593750 0.125000
vt 0.593750 0.250000
vt 0.531250 0.250000
vt 0.593750 0.000000
vt 0.625000 0.000000
vt 0.625000 0.125000
vt 0.625000 0.250000
vt 0.531250 0.375000
vt 0.593750 0.375000
vt 0.594401 0.500000
vt 0.531250 0.500000
vt 0.625000 0.375000
vt 0.625000 0.500000
vt 0.531250 0.000000
vt 0.531250 0.625000
vt 0.596354 0.625000
vt 0.594401 0.750000
vt 0.531250 0.750000
vt 0.651042 0.625000
vt 0.625000 0.750000
vt 0.531250 0.250000
vt 0.531250 0.875000
vt 0.593750 0.875000
vt 0.593750 1.000000
vt 0.531250 1.000000
vt 0.625000 0.875000
vt 0.625000 1.000000
vt 0.125000 0.500000
vt 0.250000 0.500000
vt 0.250000 0.625000
vt 0.125000 0.625000
vt 0.375000 0.500000
vt 0.375000 0.625000
vt 0.375000 0.750000
vt 0.250000 0.750000
vt 0.125000 0.750000
vt 0.750000 0.500000
vt 0.752604 0.625000
vt 0.875000 0.500000
vt 0.875000 0.625000
vt 0.875000 0.750000
vt 0.750000 0.750000
vt 0.375000 0.875000
vt 0.468750 0.875000
vt 0.468750 1.000000
vt 0.375000 1.000000
vt 0.468750 0.500000
vt 0.468750 0.625000
vt 0.468750 0.750000
vt 0.375000 0.250000
vt 0.468750 0.250000
vt 0.468750 0.375000
vt 0.375000 0.375000
vt 0.375000 0.000000
vt 0.468750 0.000000
vt 0.468750 0.125000
vt 0.375000 0.125000
vt 0.531250 0.750000
vt 0.531250 0.125000
vt 0.593750 0.125000
vt 0.593750 0.250000
vt 0.531250 0.250000
vt 0.593750 0.000000
vt 0.625000 0.000000
vt 0.625000 0.125000
vt 0.625000 0.250000
vt 0.531250 0.375000
vt 0.593750 0.375000
vt 0.594401 0.500000
vt 0.531250 0.500000
vt 0.625000 0.375000
vt 0.625000 0.500000
vt 0.531250 0.000000
vt 0.531250 0.625000
vt 0.596354 0.625000
vt 0.594401 0.750000
vt 0.531250 0.750000
vt 0.651042 0.625000
vt 0.625000 0.750000
vt 0.531250 0.250000
vt 0.531250 0.875000
vt 0.593750 0.875000
vt 0.593750 1.000000
vt 0.531250 1.000000
vt 0.625000 0.875000
vt 0.625000 1.000000
vt 0.125000 0.500000
vt 0.250000 0.500000
vt 0.250000 0.625000
vt 0.125000 0.625000
vt 0.375000 0.500000
vt 0.375000 0.625000
vt 0.375000 0.750000
vt 0.250000 0.750000
vt 0.125000 0.750000
vt 0.750000 0.500000
vt 0.752604 0.625000
vt 0.875000 0.500000
vt 0.875000 0.625000
vt 0.875000 0.750000
vt 0.750000 0.750000
vt 0.375000 0.875000
vt 0.468750 0.875000
vt 0.468750 1.000000
vt 0.375000 1.000000
vt 0.468750 0.500000
vt 0.468750 0.625000
vt 0.468750 0.750000
vt 0.375000 0.250000
vt 0.468750 0.250000
vt 0.468750 0.375000
vt 0.375000 0.375000
vt 0.375000 0.000000
vt 0.468750 0.000000
vt 0.468750 0.125000
vt 0.375000 0.125000
vt 0.531250 0.750000
vt 0.531250 0.125000
vt 0.593750 0.125000
vt 0.593750 0.250000
vt 0.531250 0.250000
vt 0.593750 0.000000
vt 0.625000 0.000000
vt 0.625000 0.125000
vt 0.625000 0.250000
vt 0.531250 0.375000
vt 0.593750 0.375000
vt 0.594401 0.500000
vt 0.531250 0.500000
vt 0.625000 0.375000
vt 0.625000 0.500000
vt 0.531250 0.000000
vt 0.531250 0.625000
vt 0.596354 0.625000
vt 0.594401 0.750000
vt 0.531250 0.750000
vt 0.651042 0.625000
vt 0.625000 0.750000
vt 0.531250 0.250000
vt 0.531250 0.875000
vt 0.593750 0.875000
vt 0.593750 1.000000
vt 0.531250 1.000000
vt 0.625000 0.875000
vt 0.625000 1.000000
vt 0.125000 0.500000
vt 0.250000 0.500000
vt 0.250000 0.625000
vt 0.125000 0.625000
vt 0.375000 0.500000
vt 0.375000 0.625000
vt 0.375000 0.750000
vt 0.250000 0.750000
vt 0.125000 0.750000
vt 0.750000 0.500000
vt 0.752604 0.625000
vt 0.875000 0.500000
vt 0.875000 0.625000
vt 0.875000 0.750000
vt 0.750000 0.750000
vt 0.375000 0.875000
vt 0.468750 0.875000
vt 0.468750 1.000000
vt 0.375000 1.000000
vt 0.468750 0.500000
vt 0.468750 0.625000
vt 0.468750 0.750000
vt 0.375000 0.250000
vt 0.468750 0.250000
vt 0.468750 0.375000
vt 0.375000 0.375000
vt 0.375000 0.000000
vt 0.468750 0.000000
vt 0.468750 0.125000
vt 0.375000 0.125000
vt 0.531250 0.750000
vn -0.9987 0.0489 0.0077
vn -0.9027 0.3905 -0.1803
vn -0.6297 0.1492 -0.7624
vn -0.7048 -0.0677 -0.7062
vn -0.6368 0.6485 0.4169
vn -0.3860 0.9195 -0.0741
vn -0.4610 0.7688 -0.4432
vn -0.3830 0.5354 -0.7528
vn 0.0000 -0.1145 -0.9934
vn 0.0000 0.0431 -0.9991
vn 0.6297 0.1492 -0.7624
vn 0.7048 -0.0677 -0.7062
vn 0.0000 0.5362 -0.8441
vn 0.3830 0.5354 -0.7528
vn -0.6859 0.1773 0.7058
vn 0.9987 0.0489 0.0077
vn 0.9027 0.3905 -0.1803
vn 0.6368 0.6485 0.4169
vn 0.6859 0.1773 0.7058
vn 0.4610 0.7688 -0.4432
vn 0.3860 0.9195 -0.0741
vn 0.0000 0.2278 0.9737
vn 0.0000 0.7497 0.6618
vn 0.0000 0.9993 -0.0363
vn -0.5282 -0.6808 -0.5074
vn 0.0000 -0.7041 -0.7101
vn 0.0000 -1.0000 0.0000
vn -0.7539 -0.6565 0.0247
vn 0.5282 -0.6808 -0.5074
vn 0.7539 -0.6565 0.0247
vn 0.5432 -0.6066 0.5805
vn 0.0000 -0.6007 0.7995
vn -0.5432 -0.6066 0.5805
vn 0.0000 0.8619 -0.5070
vn 0.0000 -0.0191 0.9998
vn -0.7174 -0.0270 0.6961
vn 0.6837 -0.0417 -0.7286
vn 0.9989 -0.0363 -0.0292
vn 0.7174 -0.0270 0.6961
vn 0.0000 -0.0561 0.9984
vn -0.6821 -0.0443 0.7298
vn 0.7026 0.0058 -0.7115
vn 0.9997 -0.0159 0.0189
vn -0.6837 -0.0417 -0.7286
vn 0.0000 -0.0419 -0.9991
vn 0.6821 -0.0443 0.7298
vn -0.7026 0.0058 -0.7115
vn 0.0000 0.0144 -0.9999
vn -0.9989 -0.0363 -0.0292
vn -0.9997 -0.0159 0.0189
vn -0.8406 -0.2451 0.4829
vn -0.7878 0.2358 0.5690
vn -0.8979 0.4288 -0.0997
vn -0.9742 0.0005 -0.2257
vn -0.2260 0.1550 0.9617
vn -0.1603 0.5958 0.7870
vn -0.4304 0.7379 0.5199
vn -0.5602 0.8139 0.1541
vn -0.5438 0.2522 -0.8004
vn -0.4926 0.6076 -0.6229
vn 0.1835 0.6918 -0.6984
vn 0.2194 0.3950 -0.8921
vn -0.2749 0.9585 -0.0756
vn 0.0953 0.9733 -0.2088
vn -0.2117 -0.3558 0.9102
vn 0.8556 0.2981 -0.4231
vn 0.7433 0.6081 -0.2786
vn 0.8295 0.4117 0.3773
vn 0.9569 0.0150 0.2899
vn 0.3586 0.9297 0.0830
vn 0.5003 0.7564 0.4213
vn 0.5212 -0.2492 0.8162
vn 0.4317 0.2175 0.8754
vn 0.2055 0.7036 0.6802
vn -0.9221 0.2488 -0.2961
vn -0.5859 0.4913 -0.6444
vn -0.5628 0.0479 -0.8252
vn -0.9608 -0.2704 -0.0603
vn -0.1111 0.4660 -0.8778
vn 0.3041 0.0852 -0.9488
vn 0.3386 -0.5169 -0.7862
vn -0.0670 -0.8765 -0.4767
vn -0.6019 -0.7858 -0.1418
vn -0.0450 0.9420 0.3325
vn 0.5545 -0.6349 0.5379
vn -0.1065 -0.6750 0.7301
vn 0.2117 0.5367 -0.8167
vn 0.8359 0.1876 -0.5157
vn 0.9488 -0.3117 0.0503
vn -0.9869 0.1299 -0.0954
vn -0.5521 0.5113 -0.6585
vn -0.7753 -0.3793 0.5050
vn 0.8329 0.0847 0.5470
vn 0.6986 0.5082 0.5036
vn 0.1140 0.4512 0.8851
vn 0.1670 0.1679 0.9715
vn 0.8383 0.5119 -0.1874
vn 0.3987 0.9068 -0.1366
vn 0.2310 0.9452 0.2308
vn -0.0391 0.8610 0.5071
vn -0.5843 0.1623 0.7951
vn -0.5599 0.3722 0.7403
vn -0.9283 0.3354 0.1602
vn -0.9862 0.0884 0.1400
vn -0.4024 0.8433 0.3562
vn -0.6629 0.7446 0.0779
vn 0.9765 -0.0477 -0.2099
vn -0.7922 -0.0523 -0.6080
vn -0.7833 0.3383 -0.5216
vn -0.2037 0.3897 -0.8981
vn -0.1267 -0.1545 -0.9798
vn -0.5198 0.8050 -0.2857
vn -0.2299 0.7895 -0.5690
vn 0.5737 -0.1445 -0.8062
vn 0.4586 0.4539 -0.7639
vn 0.1167 0.9025 -0.4145
vn -0.0829 0.5461 0.8336
vn -0.5149 0.6683 0.5369
vn -0.5789 0.1448 0.8024
vn 0.2025 0.0817 0.9759
vn -0.8777 0.4355 0.1997
vn -0.9930 -0.1019 0.0593
vn -0.7332 -0.6479 0.2065
vn -0.2607 -0.7885 0.5570
vn 0.1450 -0.5009 0.8532
vn -0.1676 0.9856 -0.0237
vn 0.4576 -0.7684 -0.4474
vn 0.8618 -0.5034 0.0621
vn -0.9388 0.3309 -0.0954
vn -0.7515 -0.2098 -0.6255
vn -0.1725 -0.6635 -0.7280
vn 0.2510 0.4559 0.8539
vn -0.5137 0.6304 0.5819
vn 0.8020 0.0052 0.5973
vn -0.2492 0.3872 -0.8876
vn -0.1323 0.7237 -0.6772
vn 0.5571 0.5826 -0.5918
vn 0.5497 0.3313 -0.7668
vn -0.6987 0.6641 -0.2659
vn -0.3836 0.9211 0.0656
vn -0.0083 0.9977 -0.0678
vn 0.3781 0.9202 -0.1012
vn 0.9827 0.0622 -0.1744
vn 0.9416 0.3279 -0.0762
vn 0.8111 0.1265 0.5710
vn 0.8225 -0.1951 0.5341
vn 0.5356 0.8090 0.2421
vn 0.5308 0.6140 0.5841
vn -0.8683 0.1713 -0.4656
vn 0.1631 -0.3552 0.9204
vn 0.2259 0.0790 0.9709
vn -0.4416 0.2177 0.8704
vn -0.5856 -0.3297 0.7404
vn 0.1755 0.6291 0.7572
vn -0.2298 0.6126 0.7562
vn -0.9771 -0.1170 0.1777
vn -0.8163 0.4449 0.3684
vn -0.3729 0.8134 0.4464
vn 0.6409 0.6654 -0.3826
vn 0.7467 0.6494 0.1434
vn 0.9732 0.1877 -0.1329
vn 0.5313 0.2979 -0.7931
vn 0.7723 0.2972 0.5614
vn 0.7560 -0.2673 0.5974
vn 0.6707 -0.7198 0.1789
vn 0.5731 -0.7042 -0.4190
vn 0.4860 -0.2972 -0.8219
vn 0.1028 0.9165 0.3865
vn -0.6456 -0.7367 -0.2014
vn -0.5904 -0.2965 -0.7507
vn 0.6670 0.0607 0.7426
vn 0.1281 -0.5006 0.8561
vn -0.3790 -0.8194 0.4301
vn 0.3990 0.6418 -0.6549
vn 0.8156 0.5761 0.0539
vn -0.1835 0.2907 -0.9390
usemtl Material.002
s 1
f 42/1/1 29/2/2 20/3/3 21/4/4
f 10/5/5 2/6/6 11/7/7 29/2/2
f 29/2/2 11/7/7 4/8/8 20/3/3
f 40/9/9 30/10/10 23/11/11 24/12/12
f 20/3/3 4/8/8 13/13/13 30/10/10
f 30/10/10 13/13/13 8/14/14 23/11/11
f 19/15/15 10/5/5 29/2/2 42/1/1
f 38/16/16 31/17/17 26/18/18 27/19/19
f 23/11/11 8/14/14 15/20/20 31/17/17
f 31/17/17 15/20/20 6/21/21 26/18/18
f 21/22/4 20/3/3 30/10/10 40/9/9
f 36/23/22 32/24/23 10/25/5 19/26/15
f 26/18/18 6/21/21 17/27/24 32/24/23
f 32/24/23 17/27/24 2/28/6 10/25/5
f 24/12/12 23/11/11 31/17/17 38/16/16
f 3/29/25 12/30/26 33/31/27 9/32/28
f 12/30/26 7/33/29 14/34/30 33/31/27
f 33/31/27 14/34/30 5/35/31 16/36/32
f 9/32/28 33/31/27 16/36/32 1/37/33
f 8/14/14 13/38/13 34/39/34 15/20/20
f 13/38/13 4/40/8 11/41/7 34/39/34
f 34/39/34 11/41/7 2/42/6 17/43/24
f 15/20/20 34/39/34 17/43/24 6/21/21
f 16/44/32 35/45/35 18/46/36 1/47/33
f 7/33/29 25/48/37 37/49/38 14/34/30
f 14/34/30 37/49/38 28/50/39 5/35/31
f 47/51/40 36/23/22 19/26/15 43/52/41
f 45/53/42 48/54/43 37/49/38 25/48/37
f 3/55/25 22/56/44 39/57/45 12/58/26
f 12/58/26 39/57/45 25/48/37 7/33/29
f 48/54/43 38/16/16 27/19/19 46/59/46
f 44/60/47 49/61/48 39/57/45 22/56/44
f 1/62/33 18/63/36 41/64/49 9/65/28
f 9/65/28 41/64/49 22/56/44 3/55/25
f 49/61/48 40/9/9 24/12/12 45/53/42
f 43/66/41 19/15/15 42/1/1 50/67/50
f 27/68/19 26/18/18 32/24/23 36/23/22
f 50/67/50 42/1/1 21/4/4 44/60/47
f 46/59/46 47/51/40 35/45/35 28/50/39
f 5/35/31 28/50/39 35/45/35 16/44/32
f 27/68/19 36/23/22 47/51/40 46/59/46
f 41/64/49 50/67/50 44/60/47 22/56/44
f 18/63/36 43/66/41 50/67/50 41/64/49
f 39/57/45 49/61/48 45/53/42 25/48/37
f 21/22/4 40/9/9 49/61/48 44/60/47
f 37/49/38 48/54/43 46/59/46 28/50/39
f 24/12/12 38/16/16 48/54/43 45/53/42
f 35/45/35 47/51/40 43/52/41 18/46/36
f 92/69/51 79/70/52 70/71/53 71/72/54
f 60/73/55 52/74/56 61/75/57 79/70/52
f 79/70/52 61/75/57 54/76/58 70/71/53
f 90/77/59 80/78/60 73/79/61 74/80/62
f 70/71/53 54/76/58 63/81/63 80/78/60
f 80/78/60 63/81/63 58/82/64 73/79/61
f 69/83/65 60/73/55 79/70/52 92/69/51
f 88/84/66 81/85/67 76/86/68 77/87/69
f 73/79/61 58/82/64 65/88/70 81/85/67
f 81/85/67 65/88/70 56/89/71 76/86/68
f 71/90/54 70/71/53 80/78/60 90/77/59
f 86/91/72 82/92/73 60/93/55 69/94/65
f 76/86/68 56/89/71 67/95/74 82/92/73
f 82/92/73 67/95/74 52/96/56 60/93/55
f 74/80/62 73/79/61 81/85/67 88/84/66
f 53/97/75 62/98/76 83/99/77 59/100/78
f 62/98/76 57/101/79 64/102/80 83/99/77
f 83/99/77 64/102/80 55/103/81 66/104/82
f 59/100/78 83/99/77 66/104/82 51/105/83
f 58/82/64 63/106/63 84/107/84 65/88/70
f 63/106/63 54/108/58 61/109/57 84/107/84
f 84/107/84 61/109/57 52/110/56 67/111/74
f 65/88/70 84/107/84 67/111/74 56/89/71
f 66/112/82 85/113/85 68/114/86 51/115/83
f 57/101/79 75/116/87 87/117/88 64/102/80
f 64/102/80 87/117/88 78/118/89 55/103/81
f 85/113/85 86/91/72 69/94/65 68/114/86
f 74/80/62 88/84/66 87/117/88 75/116/87
f 53/119/75 72/120/90 89/121/91 62/122/76
f 62/122/76 89/121/91 75/116/87 57/101/79
f 87/117/88 88/84/66 77/87/69 78/118/89
f 71/90/54 90/77/59 89/121/91 72/120/90
f 51/123/83 68/124/86 91/125/92 59/126/78
f 59/126/78 91/125/92 72/120/90 53/119/75
f 89/121/91 90/77/59 74/80/62 75/116/87
f 68/124/86 69/83/65 92/69/51 91/125/92
f 77/127/69 76/86/68 82/92/73 86/91/72
f 91/125/92 92/69/51 71/72/54 72/120/90
f 77/127/69 86/91/72 85/113/85 78/118/89
f 55/103/81 78/118/89 85/113/85 66/112/82
f 134/128/93 121/129/94 112/130/95 113/131/96
f 102/132/97 94/133/98 103/134/99 121/129/94
f 121/129/94 103/134/99 96/135/100 112/130/95
f 132/136/101 122/137/102 115/138/103 116/139/104
f 112/130/95 96/135/100 105/140/105 122/137/102
f 122/137/102 105/140/105 100/141/106 115/138/103
f 111/142/107 102/132/97 121/129/94 134/128/93
f 130/143/108 123/144/109 118/145/110 119/146/111
f 115/138/103 100/141/106 107/147/112 123/144/109
f 123/144/109 107/147/112 98/148/113 118/145/110
f 113/149/96 112/130/95 122/137/102 132/136/101
f 128/150/114 124/151/115 102/152/97 111/153/107
f 118/145/110 98/148/113 109/154/116 124/151/115
f 124/151/115 109/154/116 94/155/98 102/152/97
f 116/139/104 115/138/103 123/144/109 130/143/108
f 95/156/117 104/157/118 125/158/119 101/159/120
f 104/157/118 99/160/121 106/161/122 125/158/119
f 125/158/119 106/161/122 97/162/123 108/163/124
f 101/159/120 125/158/119 108/163/124 93/164/125
f 100/141/106 105/165/105 126/166/126 107/147/112
f 105/165/105 96/167/100 103/168/99 126/166/126
f 126/166/126 103/168/99 94/169/98 109/170/116
f 107/147/112 126/166/126 109/170/116 98/148/113
f 108/171/124 127/172/127 110/173/128 93/174/125
f 99/160/121 117/175/129 129/176/130 106/161/122
f 106/161/122 129/176/130 120/177/131 97/162/123
f 127/172/127 128/150/114 111/153/107 110/173/128
f 116/139/104 130/143/108 129/176/130 117/175/129
f 95/178/117 114/179/132 131/180/133 104/181/118
f 104/181/118 131/180/133 117/175/129 99/160/121
f 129/176/130 130/143/108 119/146/111 120/177/131
f 113/149/96 132/136/101 131/180/133 114/179/132
f 93/182/125 110/183/128 133/184/134 101/185/120
f 101/185/120 133/184/134 114/179/132 95/178/117
f 131/180/133 132/136/101 116/139/104 117/175/129
f 110/183/128 111/142/107 134/128/93 133/184/134
f 119/186/111 118/145/110 124/151/115 128/150/114
f 133/184/134 134/128/93 113/131/96 114/179/132
f 119/186/111 128/150/114 127/172/127 120/177/131
f 97/162/123 120/177/131 127/172/127 108/171/124
f 176/187/135 163/188/136 154/189/137 155/190/138
f 144/191/139 136/192/140 145/193/141 163/188/136
f 163/188/136 145/193/141 138/194/142 154/189/137
f 174/195/143 164/196/144 157/197/145 158/198/146
f 154/189/137 138/194/142 147/199/147 164/196/144
f 164/196/144 147/199/147 142/200/148 157/197/145
f 153/201/149 144/191/139 163/188/136 176/187/135
f 172/202/150 165/203/151 160/204/152 161/205/153
f 157/197/145 142/200/148 149/206/154 165/203/151
f 165/203/151 149/206/154 140/207/155 160/204/152
f 155/208/138 154/189/137 164/196/144 174/195/143
f 170/209/156 166/210/157 144/211/139 153/212/149
f 160/204/152 140/207/155 151/213/158 166/210/157
f 166/210/157 151/213/158 136/214/140 144/211/139
f 158/198/146 157/197/145 165/203/151 172/202/150
f 137/215/159 146/216/160 167/217/161 143/218/162
f 146/216/160 141/219/163 148/220/164 167/217/161
f 167/217/161 148/220/164 139/221/165 150/222/166
f 143/218/162 167/217/161 150/222/166 135/223/167
f 142/200/148 147/224/147 168/225/168 149/206/154
f 147/224/147 138/226/142 145/227/141 168/225/168
f 168/225/168 145/227/141 136/228/140 151/229/158
f 149/206/154 168/225/168 151/229/158 140/207/155
f 150/230/166 169/231/169 152/232/170 135/233/167
f 141/219/163 159/234/171 171/235/172 148/220/164
f 148/220/164 171/235/172 162/236/173 139/221/165
f 169/231/169 170/209/156 153/212/149 152/232/170
f 158/198/146 172/202/150 171/235/172 159/234/171
f 137/237/159 156/238/174 173/239/175 146/240/160
f 146/240/160 173/239/175 159/234/171 141/219/163
f 171/235/172 172/202/150 161/205/153 162/236/173
f 155/208/138 174/195/143 173/239/175 156/238/174
f 135/241/167 152/242/170 175/243/176 143/244/162
f 143/244/162 175/243/176 156/238/174 137/237/159
f 173/239/175 174/195/143 158/198/146 159/234/171
f 152/242/170 153/201/149 176/187/135 175/243/176
f 161/245/153 160/204/152 166/210/157 170/209/156
f 175/243/176 176/187/135 155/190/138 156/238/174
f 161/245/153 170/209/156 169/231/169 162/236/173
f 139/221/165 162/236/173 169/231/169 150/230/166
